<?xml version="1.0" standalone="no"?>
<!DOCTYPE svg PUBLIC "-//W3C//DTD SVG 20010904//EN"
 "http://www.w3.org/TR/2001/REC-SVG-20010904/DTD/svg10.dtd">
<svg version="1.0" xmlns="http://www.w3.org/2000/svg"
 width="313.000000pt" height="277.000000pt" viewBox="0 0 313.000000 277.000000"
 preserveAspectRatio="xMidYMid meet">

<g transform="translate(0.000000,277.000000) scale(0.100000,-0.100000)"
fill="#000000" stroke="none">
<path d="M1440 2545 c-367 -40 -692 -269 -855 -600 -82 -166 -105 -259 -112
-440 -6 -177 4 -259 52 -401 55 -166 126 -283 249 -412 164 -171 350 -272 598
-322 488 -100 1019 192 1208 663 147 367 94 775 -140 1086 -176 233 -477 404
-750 425 -47 4 -96 9 -110 10 -14 2 -77 -2 -140 -9z m348 -146 c337 -77 603
-331 708 -675 25 -82 28 -103 28 -264 1 -172 0 -177 -33 -280 -58 -184 -133
-303 -271 -433 -102 -96 -204 -157 -339 -203 -126 -44 -229 -58 -371 -51 -233
12 -434 97 -604 257 -204 192 -306 427 -306 705 0 141 19 238 70 367 154 386
532 625 950 601 47 -2 122 -13 168 -24z"/>
<path d="M1413 2381 c-240 -39 -474 -186 -611 -384 -129 -188 -180 -364 -169
-592 11 -234 95 -427 260 -601 188 -199 486 -311 752 -282 405 43 722 309 827
696 29 108 31 344 4 452 -86 337 -326 590 -653 686 -70 20 -115 26 -223 29
-74 2 -158 0 -187 -4z m294 -122 c111 -53 177 -159 177 -285 0 -60 -5 -81 -32
-137 -22 -43 -48 -78 -74 -99 -23 -18 -57 -48 -75 -67 -24 -23 -37 -31 -45
-23 -18 18 3 51 56 87 152 100 179 292 61 423 -59 66 -121 95 -205 95 -114 1
-209 -58 -256 -158 -33 -69 -33 -170 0 -240 23 -50 87 -117 131 -137 24 -11
41 -51 29 -70 -5 -7 -15 -3 -28 14 -12 13 -38 35 -59 47 -88 54 -142 165 -135
284 8 154 114 271 267 297 66 11 117 2 188 -31z m51 -218 c4 -57 -5 -91 -23
-91 -11 0 -15 11 -15 37 l0 37 -58 -57 c-32 -31 -64 -57 -72 -57 -8 0 -26 9
-40 20 -14 11 -29 20 -35 20 -5 0 -32 -25 -58 -55 -46 -53 -77 -70 -77 -42 0
7 28 44 63 81 l63 69 40 -26 41 -26 49 50 48 49 -32 0 c-20 0 -32 5 -32 13 0
24 13 28 75 25 l60 -3 3 -44z m-84 -430 c14 -22 -25 -32 -115 -29 -80 3 -94 6
-97 21 -3 15 7 17 102 17 58 0 107 -4 110 -9z m1 -61 c0 -12 -18 -15 -105 -15
-93 0 -105 2 -108 18 -3 16 5 17 105 15 88 -2 108 -6 108 -18z m-47 -52 c3
-16 -5 -18 -62 -18 -48 0 -66 4 -66 13 0 23 13 28 70 25 43 -2 56 -7 58 -20z
m-650 -176 c2 -7 -5 -16 -17 -19 -18 -4 -21 -13 -21 -54 0 -42 -3 -49 -20 -49
-17 0 -20 7 -20 50 0 43 -3 50 -20 50 -13 0 -20 7 -20 20 0 19 5 21 57 18 36
-2 58 -8 61 -16z m121 4 c7 -8 11 -37 9 -68 l-3 -53 -43 -3 c-58 -4 -72 10
-72 69 0 35 5 51 18 58 25 15 78 13 91 -3z m211 -6 c0 -13 -7 -20 -20 -20 -17
0 -20 -7 -20 -50 0 -38 -4 -50 -15 -50 -11 0 -15 12 -15 50 0 43 -3 50 -20 50
-13 0 -20 7 -20 20 0 18 7 20 55 20 48 0 55 -2 55 -20z m58 -13 c5 -38 39 -37
44 0 2 17 10 29 21 31 15 3 17 -5 17 -67 0 -64 -2 -71 -20 -71 -15 0 -20 7
-20 25 0 18 -5 25 -20 25 -15 0 -20 -7 -20 -25 0 -18 -5 -25 -20 -25 -18 0
-20 7 -20 63 0 35 3 67 7 71 13 12 28 -1 31 -27z m227 13 c0 -10 -12 -16 -37
-18 -48 -4 -50 -22 -2 -22 45 0 42 -24 -4 -28 -44 -4 -40 -20 5 -24 20 -2 38
-9 41 -16 3 -10 -10 -12 -54 -10 l-59 3 -3 68 -3 68 58 -3 c44 -2 58 -7 58
-18z m144 -11 l19 -31 18 31 c30 51 49 36 52 -42 3 -62 1 -67 -18 -67 -16 0
-20 6 -20 32 0 30 -1 31 -14 13 -12 -16 -16 -17 -30 -6 -14 12 -16 10 -16 -13
0 -19 -5 -26 -20 -26 -18 0 -20 7 -20 70 0 80 16 93 49 39z m220 17 c7 -8 11
-37 9 -68 l-3 -53 -43 -3 c-58 -4 -72 10 -72 69 0 35 5 51 18 58 25 15 78 13
91 -3z m150 0 c7 -8 11 -37 9 -68 l-3 -53 -55 0 -55 0 -3 53 c-4 65 8 82 58
82 21 0 43 -6 49 -14z m93 -23 l23 -38 5 35 c3 22 10 35 20 35 12 0 16 -15 18
-67 3 -62 1 -68 -17 -68 -12 0 -29 15 -43 38 l-23 37 -3 -37 c-2 -25 -8 -38
-18 -38 -11 0 -14 16 -14 70 0 82 15 92 52 33z m-362 -285 l0 -52 28 27 c35
34 65 37 34 4 -27 -29 -27 -39 -2 -62 11 -10 20 -22 20 -27 0 -16 -23 -7 -42
17 -21 27 -38 25 -38 -6 0 -10 -7 -19 -15 -19 -12 0 -15 16 -15 85 0 69 3 85
15 85 11 0 15 -12 15 -52z m-570 18 c0 -8 9 -16 20 -18 29 -4 30 -22 2 -26
-19 -3 -23 -9 -20 -35 3 -27 7 -32 26 -29 31 3 24 -22 -7 -26 -32 -5 -51 15
-51 54 0 24 -5 34 -15 34 -8 0 -15 7 -15 15 0 8 7 15 15 15 8 0 15 7 15 15 0
8 7 15 15 15 8 0 15 -6 15 -14z m-154 -33 c20 -20 1 -32 -21 -13 -16 13 -45 7
-45 -10 0 -5 10 -10 23 -10 13 0 32 -6 43 -14 15 -12 17 -18 8 -33 -15 -24
-76 -29 -94 -8 -15 19 -5 34 12 17 7 -7 23 -12 36 -12 31 0 24 24 -9 28 -26 4
-49 19 -49 33 0 16 32 39 55 39 13 0 31 -8 41 -17z m384 7 c26 -14 34 -57 15
-86 -29 -45 -107 -24 -107 30 0 51 47 80 92 56z m140 0 c0 -6 8 -5 20 2 34 21
55 -1 58 -61 2 -29 -1 -51 -7 -51 -5 0 -11 19 -13 43 -3 37 -6 42 -28 42 -22
0 -25 -5 -28 -42 -2 -29 -8 -43 -18 -43 -10 0 -14 14 -14 53 0 30 3 57 7 60
10 10 23 8 23 -3z m450 -5 c17 -20 5 -32 -15 -15 -16 13 -45 7 -45 -10 0 -5
10 -10 23 -10 13 0 32 -6 43 -14 15 -12 17 -18 8 -33 -15 -24 -76 -29 -94 -8
-15 19 -5 34 12 17 7 -7 23 -12 36 -12 33 0 23 24 -13 30 -15 3 -33 13 -39 23
-22 36 56 65 84 32z"/>
<path d="M1030 1265 c0 -31 3 -35 25 -35 22 0 25 4 25 35 0 31 -3 35 -25 35
-22 0 -25 -4 -25 -35z"/>
<path d="M1890 1265 c0 -31 3 -35 25 -35 22 0 25 4 25 35 0 31 -3 35 -25 35
-22 0 -25 -4 -25 -35z"/>
<path d="M2040 1265 c0 -28 4 -35 20 -35 16 0 20 7 20 35 0 28 -4 35 -20 35
-16 0 -20 -7 -20 -35z"/>
<path d="M1433 974 c-8 -22 10 -49 32 -49 22 0 40 27 32 49 -8 21 -56 21 -64
0z"/>
</g>
</svg>
